<svg width="160" height="187" viewBox="0 0 160 187" fill="none" xmlns="http://www.w3.org/2000/svg">
<path d="M26.0593 24.4377C42.311 16.0004 66.7224 -0.381028 76.7834 0.00676458L132.119 0.00675197V33.7447C132.119 55.4611 124.573 59.3391 107.386 59.3391C90.198 59.3391 76.7834 74.0752 76.7834 86.0968C76.7834 98.1184 96.9053 106.262 107.386 106.262C115.77 106.262 143.298 92.8185 148.049 86.0968L156.852 59.3391C159.228 71.8777 162.553 100.212 156.852 113.242C149.726 129.53 128.765 140 96.9053 140C65.0456 140 20.1903 127.978 11.387 113.242C2.58361 98.5061 -15.0231 45.7663 26.0593 24.4377Z" fill="#0CF5D9"/>
<path d="M20.78 156.52C20.78 157.373 20.88 158.1 21.08 158.7C21.2933 159.287 21.5867 159.767 21.96 160.14C22.3467 160.513 22.8 160.787 23.32 160.96C23.84 161.12 24.42 161.2 25.06 161.2C25.9 161.2 26.58 161.06 27.1 160.78C27.62 160.487 28.0267 160.073 28.32 159.54C28.6267 159.007 28.8333 158.36 28.94 157.6C29.0467 156.827 29.1 155.967 29.1 155.02C29.1 153.993 29.08 152.88 29.04 151.68C29.0133 150.48 28.9733 149.213 28.92 147.88C29.1467 147.773 29.3867 147.7 29.64 147.66C29.9067 147.607 30.1667 147.58 30.42 147.58C30.3933 148.42 30.38 149.22 30.38 149.98C30.38 150.727 30.3733 151.467 30.36 152.2C30.3467 152.933 30.3267 153.667 30.3 154.4C30.2733 155.12 30.2333 155.867 30.18 156.64C30.1 157.72 29.8933 158.627 29.56 159.36C29.2267 160.08 28.8067 160.667 28.3 161.12C27.7933 161.56 27.2 161.873 26.52 162.06C25.8533 162.247 25.14 162.34 24.38 162.34C23.6733 162.34 23 162.24 22.36 162.04C21.7333 161.84 21.18 161.533 20.7 161.12C20.22 160.693 19.84 160.153 19.56 159.5C19.28 158.833 19.14 158.04 19.14 157.12V147.94C19.5933 147.7 20.14 147.58 20.78 147.58V156.52ZM45.4539 161.94C45.3739 162.007 45.2539 162.053 45.0939 162.08C44.9339 162.12 44.7939 162.14 44.6739 162.14L35.3939 149.4C35.4072 150.44 35.4206 151.467 35.4339 152.48C35.4606 153.493 35.4806 154.507 35.4939 155.52C35.5206 156.533 35.5472 157.56 35.5739 158.6C35.6139 159.627 35.6606 160.687 35.7139 161.78C35.5672 161.887 35.3472 161.973 35.0539 162.04C34.7606 162.107 34.4806 162.14 34.2139 162.14C34.2406 160.98 34.2672 159.853 34.2939 158.76C34.3206 157.653 34.3472 156.533 34.3739 155.4C34.4006 154.253 34.4272 153.073 34.4539 151.86C34.4806 150.633 34.5139 149.327 34.5539 147.94C34.7806 147.833 35.0339 147.747 35.3139 147.68C35.6072 147.613 35.8939 147.58 36.1739 147.58L44.5539 159.18C44.5272 157.207 44.4939 155.267 44.4539 153.36C44.4272 151.453 44.3806 149.653 44.3139 147.96C44.5406 147.827 44.7872 147.733 45.0539 147.68C45.3339 147.613 45.5872 147.58 45.8139 147.58C45.7472 149.713 45.6872 151.993 45.6339 154.42C45.5806 156.847 45.5206 159.353 45.4539 161.94ZM59.9227 147.62C59.896 147.887 59.8227 148.14 59.7027 148.38C59.596 148.62 59.476 148.793 59.3427 148.9C58.7427 148.847 58.036 148.78 57.2227 148.7C56.4093 148.607 55.6293 148.527 54.8827 148.46V161.82C54.6693 161.94 54.416 162.02 54.1227 162.06C53.8427 162.113 53.5493 162.14 53.2427 162.14V148.46C52.8427 148.5 52.4093 148.547 51.9427 148.6C51.476 148.64 51.016 148.68 50.5627 148.72C50.1093 148.76 49.676 148.8 49.2627 148.84C48.8627 148.867 48.5227 148.887 48.2427 148.9C48.2693 148.607 48.3293 148.353 48.4227 148.14C48.5293 147.913 48.656 147.74 48.8027 147.62H59.9227ZM62.5203 148.16C63.107 147.947 63.7936 147.767 64.5803 147.62C65.3803 147.46 66.187 147.38 67.0003 147.38C67.907 147.38 68.6736 147.487 69.3003 147.7C69.9403 147.9 70.4603 148.18 70.8603 148.54C71.2603 148.887 71.547 149.293 71.7203 149.76C71.907 150.227 72.0003 150.72 72.0003 151.24C72.0003 151.88 71.8803 152.447 71.6403 152.94C71.4003 153.42 71.087 153.84 70.7003 154.2C70.327 154.547 69.8936 154.84 69.4003 155.08C68.907 155.307 68.4136 155.48 67.9203 155.6C68.147 155.747 68.3603 155.933 68.5603 156.16C68.7603 156.373 68.9736 156.627 69.2003 156.92L71.1803 159.48C71.5936 160.013 71.9736 160.473 72.3203 160.86C72.667 161.247 72.9603 161.54 73.2003 161.74V161.86C73.0136 161.953 72.7403 162.02 72.3803 162.06C72.0203 162.113 71.6803 162.14 71.3603 162.14C71.227 162.087 71.047 161.947 70.8203 161.72C70.607 161.48 70.307 161.08 69.9203 160.52L67.5603 157.18C67.387 156.94 67.2203 156.733 67.0603 156.56C66.9136 156.387 66.747 156.247 66.5603 156.14C66.387 156.02 66.1803 155.94 65.9403 155.9C65.7136 155.847 65.4336 155.82 65.1003 155.82H64.1603V161.82C63.947 161.94 63.6936 162.02 63.4003 162.06C63.1203 162.113 62.827 162.14 62.5203 162.14V148.16ZM66.2803 148.3C65.9603 148.3 65.6136 148.32 65.2403 148.36C64.867 148.4 64.507 148.46 64.1603 148.54V154.74C64.387 154.807 64.647 154.86 64.9403 154.9C65.247 154.94 65.5936 154.96 65.9803 154.96C67.287 154.96 68.3203 154.693 69.0803 154.16C69.8403 153.627 70.2203 152.807 70.2203 151.7C70.2203 151.22 70.1403 150.773 69.9803 150.36C69.8203 149.933 69.5736 149.573 69.2403 149.28C68.9203 148.973 68.5136 148.733 68.0203 148.56C67.527 148.387 66.947 148.3 66.2803 148.3ZM76.075 162.14V148.1C76.5283 147.847 77.075 147.707 77.715 147.68C78.1017 147.667 78.615 147.66 79.255 147.66C79.9083 147.647 80.595 147.633 81.315 147.62C82.0483 147.607 82.7617 147.6 83.455 147.6C84.1617 147.587 84.755 147.58 85.235 147.58C85.2083 147.86 85.1283 148.113 84.995 148.34C84.875 148.567 84.735 148.713 84.575 148.78C84.1217 148.78 83.6083 148.773 83.035 148.76C82.4617 148.733 81.8683 148.713 81.255 148.7C80.6417 148.673 80.0283 148.647 79.415 148.62C78.8017 148.593 78.235 148.567 77.715 148.54V154.42L84.055 154.3C84.0283 154.54 83.9617 154.76 83.855 154.96C83.7483 155.16 83.6283 155.273 83.495 155.3C82.5217 155.287 81.555 155.28 80.595 155.28C79.635 155.267 78.675 155.247 77.715 155.22V161.26C78.8883 161.233 80.1083 161.193 81.375 161.14C82.6417 161.073 83.9817 160.993 85.395 160.9C85.355 161.207 85.275 161.473 85.155 161.7C85.035 161.913 84.9017 162.06 84.755 162.14H76.075ZM90.2736 161.82C90.0603 161.94 89.8069 162.02 89.5136 162.06C89.2336 162.113 88.9403 162.14 88.6336 162.14V148.1C88.8203 147.993 89.0603 147.9 89.3536 147.82C89.6603 147.74 89.9669 147.693 90.2736 147.68C90.5936 147.667 91.0669 147.66 91.6936 147.66C92.3336 147.647 93.0203 147.633 93.7536 147.62C94.4869 147.607 95.2203 147.6 95.9536 147.6C96.6869 147.587 97.3136 147.58 97.8336 147.58C97.8069 147.847 97.7336 148.093 97.6136 148.32C97.5069 148.547 97.3736 148.693 97.2136 148.76C96.7469 148.76 96.2203 148.753 95.6336 148.74C95.0469 148.727 94.4403 148.713 93.8136 148.7C93.1869 148.673 92.5669 148.653 91.9536 148.64C91.3403 148.613 90.7803 148.587 90.2736 148.56V154.42L96.5136 154.3C96.4869 154.54 96.4203 154.76 96.3136 154.96C96.2069 155.16 96.0869 155.273 95.9536 155.3C94.9936 155.287 94.0469 155.28 93.1136 155.28C92.1803 155.28 91.2336 155.267 90.2736 155.24V161.82ZM100.88 148.18C101.48 147.967 102.166 147.78 102.94 147.62C103.713 147.46 104.56 147.38 105.48 147.38C106.44 147.38 107.246 147.5 107.9 147.74C108.553 147.967 109.073 148.273 109.46 148.66C109.86 149.047 110.146 149.487 110.32 149.98C110.493 150.473 110.58 150.98 110.58 151.5C110.58 152.313 110.413 153.04 110.08 153.68C109.76 154.32 109.313 154.86 108.74 155.3C108.18 155.74 107.52 156.08 106.76 156.32C106 156.547 105.18 156.66 104.3 156.66C103.953 156.66 103.626 156.647 103.32 156.62C103.013 156.593 102.746 156.56 102.52 156.52V161.82C102.306 161.94 102.053 162.02 101.76 162.06C101.48 162.113 101.186 162.14 100.88 162.14V148.18ZM104.92 148.3C104.44 148.3 104 148.327 103.6 148.38C103.2 148.433 102.84 148.493 102.52 148.56V155.18C102.813 155.34 103.153 155.473 103.54 155.58C103.94 155.687 104.433 155.74 105.02 155.74C106.18 155.74 107.1 155.433 107.78 154.82C108.46 154.207 108.8 153.32 108.8 152.16C108.8 151.627 108.726 151.127 108.58 150.66C108.433 150.193 108.2 149.787 107.88 149.44C107.56 149.08 107.153 148.8 106.66 148.6C106.18 148.4 105.6 148.3 104.92 148.3ZM113.809 162.14V148.1C114.263 147.847 114.809 147.707 115.449 147.68C115.836 147.667 116.349 147.66 116.989 147.66C117.643 147.647 118.329 147.633 119.049 147.62C119.783 147.607 120.496 147.6 121.189 147.6C121.896 147.587 122.489 147.58 122.969 147.58C122.943 147.86 122.863 148.113 122.729 148.34C122.609 148.567 122.469 148.713 122.309 148.78C121.856 148.78 121.343 148.773 120.769 148.76C120.196 148.733 119.603 148.713 118.989 148.7C118.376 148.673 117.763 148.647 117.149 148.62C116.536 148.593 115.969 148.567 115.449 148.54V154.42L121.789 154.3C121.763 154.54 121.696 154.76 121.589 154.96C121.483 155.16 121.363 155.273 121.229 155.3C120.256 155.287 119.289 155.28 118.329 155.28C117.369 155.267 116.409 155.247 115.449 155.22V161.26C116.623 161.233 117.843 161.193 119.109 161.14C120.376 161.073 121.716 160.993 123.129 160.9C123.089 161.207 123.009 161.473 122.889 161.7C122.769 161.913 122.636 162.06 122.489 162.14H113.809ZM126.368 148.1C127.008 147.887 127.708 147.713 128.468 147.58C129.241 147.447 130.128 147.38 131.128 147.38C132.328 147.38 133.375 147.567 134.268 147.94C135.161 148.3 135.901 148.793 136.488 149.42C137.088 150.033 137.535 150.753 137.828 151.58C138.121 152.393 138.268 153.26 138.268 154.18C138.268 155.487 138.061 156.647 137.648 157.66C137.235 158.673 136.655 159.533 135.908 160.24C135.161 160.933 134.261 161.46 133.208 161.82C132.168 162.18 131.015 162.36 129.748 162.36C129.201 162.36 128.628 162.333 128.028 162.28C127.428 162.227 126.875 162.147 126.368 162.04V148.1ZM130.428 148.28C129.908 148.28 129.455 148.3 129.068 148.34C128.681 148.367 128.328 148.407 128.008 148.46V161C128.341 161.107 128.761 161.193 129.268 161.26C129.788 161.313 130.308 161.34 130.828 161.34C131.641 161.34 132.388 161.213 133.068 160.96C133.761 160.707 134.361 160.32 134.868 159.8C135.375 159.267 135.768 158.593 136.048 157.78C136.341 156.967 136.488 155.993 136.488 154.86C136.488 153.953 136.368 153.1 136.128 152.3C135.888 151.5 135.521 150.807 135.028 150.22C134.535 149.62 133.908 149.147 133.148 148.8C132.388 148.453 131.481 148.28 130.428 148.28ZM143.458 161.82C143.244 161.94 142.991 162.02 142.698 162.06C142.418 162.113 142.124 162.14 141.818 162.14V147.94C142.271 147.7 142.818 147.58 143.458 147.58V161.82ZM146.112 162.14C146.552 161.02 147.019 159.827 147.512 158.56C148.005 157.28 148.499 156.013 148.992 154.76C149.499 153.493 149.985 152.273 150.452 151.1C150.932 149.913 151.359 148.847 151.732 147.9C151.959 147.793 152.205 147.713 152.472 147.66C152.739 147.607 153.005 147.58 153.272 147.58L158.572 161.92C158.452 161.987 158.285 162.04 158.072 162.08C157.859 162.133 157.605 162.16 157.312 162.16C157.245 162.16 157.179 162.16 157.112 162.16C157.059 162.16 156.999 162.153 156.932 162.14L155.372 157.9H148.972C148.505 159.327 148.092 160.687 147.732 161.98C147.612 162.047 147.452 162.093 147.252 162.12C147.065 162.16 146.872 162.18 146.672 162.18C146.552 162.18 146.445 162.173 146.352 162.16C146.259 162.16 146.179 162.153 146.112 162.14ZM152.152 149.06C151.685 150.273 151.205 151.553 150.712 152.9C150.232 154.233 149.759 155.58 149.292 156.94H155.032L152.152 149.06Z" fill="black"/>
<path d="M26.9448 181.015V169.904H27.9116V181.015H26.9448ZM29.5889 179.118C29.5889 178.766 29.6328 178.461 29.7207 178.202C29.8086 177.938 29.9453 177.707 30.1309 177.506C30.3213 177.301 30.5361 177.121 30.7754 176.964C31.0146 176.808 31.3125 176.667 31.6689 176.54C32.3184 176.31 33.1118 176.103 34.0493 175.917C34.0493 175.146 33.9004 174.63 33.6025 174.372C33.3389 174.142 32.9556 174.027 32.4526 174.027C31.8374 174.027 31.3076 174.262 30.8633 174.73C30.6729 174.921 30.541 175.092 30.4678 175.243L29.772 174.782C30.3188 173.732 31.249 173.207 32.5625 173.207C33.7393 173.207 34.4912 173.659 34.8184 174.562C34.9502 174.928 35.0161 175.373 35.0161 175.895V179.916C35.0161 180.058 35.043 180.25 35.0967 180.495C35.1504 180.739 35.1992 180.907 35.2432 181H34.269C34.1226 180.927 34.0493 180.517 34.0493 179.77C33.3608 180.653 32.6016 181.095 31.7715 181.095C30.8535 181.095 30.2163 180.773 29.8599 180.128C29.6792 179.801 29.5889 179.464 29.5889 179.118ZM30.7388 178.275C30.6167 178.5 30.5557 178.793 30.5557 179.154C30.5557 179.516 30.6826 179.794 30.9365 179.989C31.1904 180.18 31.4712 180.275 31.7788 180.275C32.0913 180.275 32.3647 180.229 32.5991 180.136C32.8384 180.043 33.0557 179.923 33.251 179.777C33.6074 179.508 33.8735 179.269 34.0493 179.059V176.737C33.1216 176.977 32.5723 177.123 32.4014 177.177C31.542 177.455 30.9878 177.821 30.7388 178.275ZM40.8901 179.916C40.6509 179.56 40.4678 179.162 40.3408 178.722C40.2188 178.283 40.1577 177.821 40.1577 177.338C40.1577 176.854 40.1919 176.415 40.2603 176.02C40.3286 175.619 40.4189 175.28 40.5312 175.001C40.6436 174.723 40.7803 174.477 40.9414 174.262C41.1025 174.042 41.2686 173.866 41.4395 173.734C41.6104 173.603 41.7959 173.495 41.9961 173.412C42.3428 173.266 42.6724 173.192 42.9849 173.192C43.2974 173.192 43.5635 173.222 43.7832 173.28C44.0029 173.334 44.2373 173.449 44.4863 173.625C44.7402 173.795 44.9575 174.022 45.1382 174.306C45.5581 174.97 45.7681 175.949 45.7681 177.243H41.1245C41.1245 178.546 41.4541 179.435 42.1133 179.909C42.4404 180.143 42.8042 180.26 43.2046 180.26C43.9565 180.26 44.5962 179.794 45.1235 178.861L45.79 179.323C45.5996 179.674 45.3506 179.992 45.043 180.275C44.457 180.812 43.8784 181.081 43.3071 181.081C42.7358 181.081 42.25 180.976 41.8496 180.766C41.4492 180.556 41.1294 180.272 40.8901 179.916ZM41.1685 176.422H44.8013C44.8013 175.695 44.6328 175.092 44.2959 174.613C44.0127 174.213 43.6099 174.013 43.0874 174.013C42.2329 174.013 41.6616 174.408 41.3735 175.199C41.2368 175.57 41.1685 175.978 41.1685 176.422ZM47.2695 181V173.273H48.2363V174.54C48.666 174.115 49.0737 173.786 49.4595 173.551C49.8452 173.312 50.2993 173.192 50.8218 173.192C51.3442 173.192 51.7861 173.363 52.1475 173.705C52.5088 174.047 52.6895 174.56 52.6895 175.243V181H51.7227V175.243C51.7227 174.877 51.5908 174.582 51.3271 174.357C51.0684 174.127 50.7876 174.013 50.4849 174.013C49.7622 174.013 49.0127 174.435 48.2363 175.28V181H47.2695ZM54.0444 177.191C54.0444 174.525 55.082 173.192 57.1572 173.192C57.6699 173.192 58.1021 173.314 58.4536 173.559C58.8003 173.803 59.0298 174.022 59.1421 174.218C59.3374 174.55 59.4717 174.826 59.5449 175.045L58.7686 175.397C58.7588 175.299 58.7051 175.155 58.6074 174.965C58.5146 174.774 58.4146 174.618 58.3071 174.496C58.1997 174.374 58.0435 174.264 57.8384 174.167C57.6382 174.064 57.4111 174.013 57.1572 174.013C55.7266 174.013 55.0112 175.05 55.0112 177.125C55.0112 178.131 55.1992 178.905 55.5752 179.447C55.9561 179.989 56.4834 180.26 57.1572 180.26C57.6211 180.26 58.0068 180.082 58.3145 179.726C58.583 179.418 58.7637 179.145 58.8564 178.905L58.9224 178.744L59.6841 179.11C59.5132 179.584 59.2324 180.014 58.8418 180.399C58.666 180.57 58.4268 180.727 58.124 180.868C57.8213 181.01 57.499 181.081 57.1572 181.081C56.0928 181.081 55.3066 180.741 54.7988 180.062C54.2959 179.379 54.0444 178.422 54.0444 177.191ZM61.1562 172.299V171.2H62.2549V172.299H61.1562ZM61.2222 181V173.273H62.189V181H61.2222ZM63.8882 177.191C63.8882 174.525 64.9258 173.192 67.001 173.192C67.5137 173.192 67.9458 173.314 68.2974 173.559C68.644 173.803 68.8735 174.022 68.9858 174.218C69.1812 174.55 69.3154 174.826 69.3887 175.045L68.6123 175.397C68.6025 175.299 68.5488 175.155 68.4512 174.965C68.3584 174.774 68.2583 174.618 68.1509 174.496C68.0435 174.374 67.8872 174.264 67.6821 174.167C67.4819 174.064 67.2549 174.013 67.001 174.013C65.5703 174.013 64.855 175.05 64.855 177.125C64.855 178.131 65.043 178.905 65.4189 179.447C65.7998 179.989 66.3271 180.26 67.001 180.26C67.4648 180.26 67.8506 180.082 68.1582 179.726C68.4268 179.418 68.6074 179.145 68.7002 178.905L68.7661 178.744L69.5278 179.11C69.3569 179.584 69.0762 180.014 68.6855 180.399C68.5098 180.57 68.2705 180.727 67.9678 180.868C67.665 181.01 67.3428 181.081 67.001 181.081C65.9365 181.081 65.1504 180.741 64.6426 180.062C64.1396 179.379 63.8882 178.422 63.8882 177.191ZM71.0659 181.015V169.904H72.0327V181.015H71.0659ZM73.7319 177.089C73.7319 175.907 73.9956 174.962 74.5229 174.254C75.0552 173.546 75.7974 173.192 76.7495 173.192C77.7017 173.192 78.439 173.549 78.9614 174.262C79.4888 174.975 79.7524 175.927 79.7524 177.118C79.7524 178.31 79.4863 179.269 78.9541 179.997C78.4268 180.724 77.6919 181.088 76.7495 181.088C75.7876 181.088 75.0405 180.712 74.5083 179.96C73.9907 179.223 73.7319 178.266 73.7319 177.089ZM74.6987 177.133C74.6987 178.681 75.1016 179.662 75.9072 180.077C76.1514 180.204 76.4321 180.268 76.7495 180.268C77.0669 180.268 77.3477 180.204 77.5918 180.077C77.8408 179.95 78.0386 179.787 78.1851 179.586C78.3315 179.386 78.4512 179.145 78.5439 178.861C78.7051 178.368 78.7856 177.794 78.7856 177.14C78.7856 175.055 78.1045 174.013 76.7422 174.013C75.3799 174.013 74.6987 175.053 74.6987 177.133ZM81.2466 184.003V173.273H82.2134V174.474C82.3306 174.254 82.5234 174.035 82.792 173.815C83.2998 173.4 83.8296 173.192 84.3813 173.192C85.4067 173.192 86.188 173.754 86.7251 174.877C87.0327 175.521 87.1865 176.227 87.1865 176.994C87.1865 178.341 86.8569 179.413 86.1978 180.209C85.7192 180.79 85.082 181.081 84.2861 181.081C83.8369 181.081 83.4023 180.946 82.9824 180.678C82.5625 180.404 82.3062 180.17 82.2134 179.975V184.003H81.2466ZM82.2134 179.14C82.438 179.462 82.7114 179.73 83.0337 179.945C83.356 180.155 83.6611 180.26 83.9492 180.26C84.2422 180.26 84.4863 180.233 84.6816 180.18C84.8818 180.121 85.0771 180.019 85.2676 179.872C85.4629 179.721 85.6289 179.525 85.7656 179.286C86.0684 178.759 86.2197 177.995 86.2197 176.994C86.2197 175.773 85.9365 174.914 85.3701 174.416C85.0674 174.147 84.6865 174.013 84.2275 174.013C83.6123 174.013 83.0752 174.271 82.6162 174.789C82.499 174.921 82.3647 175.089 82.2134 175.294V179.14ZM89.0249 179.916C88.7856 179.56 88.6025 179.162 88.4756 178.722C88.3535 178.283 88.2925 177.821 88.2925 177.338C88.2925 176.854 88.3267 176.415 88.395 176.02C88.4634 175.619 88.5537 175.28 88.666 175.001C88.7783 174.723 88.915 174.477 89.0762 174.262C89.2373 174.042 89.4033 173.866 89.5742 173.734C89.7451 173.603 89.9307 173.495 90.1309 173.412C90.4775 173.266 90.8071 173.192 91.1196 173.192C91.4321 173.192 91.6982 173.222 91.918 173.28C92.1377 173.334 92.3721 173.449 92.6211 173.625C92.875 173.795 93.0923 174.022 93.2729 174.306C93.6929 174.97 93.9028 175.949 93.9028 177.243H89.2593C89.2593 178.546 89.5889 179.435 90.248 179.909C90.5752 180.143 90.939 180.26 91.3394 180.26C92.0913 180.26 92.731 179.794 93.2583 178.861L93.9248 179.323C93.7344 179.674 93.4854 179.992 93.1777 180.275C92.5918 180.812 92.0132 181.081 91.4419 181.081C90.8706 181.081 90.3848 180.976 89.9844 180.766C89.584 180.556 89.2642 180.272 89.0249 179.916ZM89.3032 176.422H92.936C92.936 175.695 92.7676 175.092 92.4307 174.613C92.1475 174.213 91.7446 174.013 91.2222 174.013C90.3677 174.013 89.7964 174.408 89.5083 175.199C89.3716 175.57 89.3032 175.978 89.3032 176.422ZM99.96 179.784C99.4619 180.648 98.7686 181.081 97.8799 181.081C97.4355 181.081 97.0303 180.971 96.6641 180.751C96.2979 180.526 96.0024 180.231 95.7778 179.865C95.3091 179.098 95.0747 178.231 95.0747 177.265C95.0747 176.547 95.1895 175.88 95.4189 175.265C95.6533 174.65 95.9951 174.152 96.4443 173.771C96.8936 173.385 97.3721 173.192 97.8799 173.192C98.3926 173.192 98.8442 173.324 99.2349 173.588C99.6255 173.852 99.8672 174.083 99.96 174.284V169.904H100.927V179.931C100.927 180.077 100.946 180.27 100.985 180.509C101.029 180.744 101.073 180.907 101.117 181H100.143C100.021 180.941 99.96 180.536 99.96 179.784ZM96.0415 177.265C96.0415 178.129 96.1953 178.837 96.5029 179.389C96.8252 179.97 97.3354 180.26 98.0337 180.26C98.4976 180.26 98.8784 180.128 99.1763 179.865C99.4155 179.655 99.6768 179.354 99.96 178.964V175.119C99.4424 174.381 98.8638 174.013 98.2241 174.013C96.769 174.013 96.0415 175.097 96.0415 177.265ZM102.611 172.299V171.2H103.71V172.299H102.611ZM102.677 181V173.273H103.644V181H102.677ZM105.321 179.118C105.321 178.766 105.365 178.461 105.453 178.202C105.541 177.938 105.678 177.707 105.863 177.506C106.054 177.301 106.269 177.121 106.508 176.964C106.747 176.808 107.045 176.667 107.401 176.54C108.051 176.31 108.844 176.103 109.782 175.917C109.782 175.146 109.633 174.63 109.335 174.372C109.071 174.142 108.688 174.027 108.185 174.027C107.57 174.027 107.04 174.262 106.596 174.73C106.405 174.921 106.273 175.092 106.2 175.243L105.504 174.782C106.051 173.732 106.981 173.207 108.295 173.207C109.472 173.207 110.224 173.659 110.551 174.562C110.683 174.928 110.749 175.373 110.749 175.895V179.916C110.749 180.058 110.775 180.25 110.829 180.495C110.883 180.739 110.932 180.907 110.976 181H110.001C109.855 180.927 109.782 180.517 109.782 179.77C109.093 180.653 108.334 181.095 107.504 181.095C106.586 181.095 105.949 180.773 105.592 180.128C105.412 179.801 105.321 179.464 105.321 179.118ZM106.471 178.275C106.349 178.5 106.288 178.793 106.288 179.154C106.288 179.516 106.415 179.794 106.669 179.989C106.923 180.18 107.204 180.275 107.511 180.275C107.824 180.275 108.097 180.229 108.332 180.136C108.571 180.043 108.788 179.923 108.983 179.777C109.34 179.508 109.606 179.269 109.782 179.059V176.737C108.854 176.977 108.305 177.123 108.134 177.177C107.274 177.455 106.72 177.821 106.471 178.275ZM116.286 179.03V173.273H117.252V179.03C117.252 179.396 117.382 179.694 117.641 179.923C117.904 180.148 118.188 180.26 118.49 180.26C119.213 180.26 119.962 179.838 120.739 178.993V173.273H121.706V181H120.739V179.726C120.045 180.404 119.452 180.819 118.959 180.971C118.72 181.044 118.471 181.081 118.212 181.081C117.65 181.081 117.189 180.91 116.828 180.568C116.466 180.226 116.286 179.713 116.286 179.03ZM123.397 181V173.273H124.364V174.54C124.794 174.115 125.202 173.786 125.587 173.551C125.973 173.312 126.427 173.192 126.95 173.192C127.472 173.192 127.914 173.363 128.275 173.705C128.637 174.047 128.817 174.56 128.817 175.243V181H127.851V175.243C127.851 174.877 127.719 174.582 127.455 174.357C127.196 174.127 126.916 174.013 126.613 174.013C125.89 174.013 125.141 174.435 124.364 175.28V181H123.397ZM129.887 174.093V173.273H131.19V170.453H132.157V173.273H133.93V174.093H132.157V178.993C132.157 179.486 132.233 179.823 132.384 180.004C132.536 180.185 132.785 180.275 133.131 180.275C133.273 180.275 133.441 180.263 133.637 180.238C133.832 180.214 133.93 180.199 133.93 180.194V180.919C133.607 181.037 133.292 181.095 132.985 181.095C132.682 181.095 132.475 181.088 132.362 181.073C132.25 181.059 132.113 181.012 131.952 180.934C131.791 180.856 131.659 180.746 131.557 180.604C131.312 180.263 131.19 179.726 131.19 178.993V174.093H129.887ZM134.94 181C134.94 181 134.94 178.424 134.94 173.273H135.907V175.353C136.137 174.845 136.312 174.496 136.435 174.306C136.913 173.563 137.533 173.192 138.295 173.192C138.354 173.192 138.441 173.197 138.559 173.207V174.027C138.227 174.071 137.951 174.135 137.731 174.218C137.511 174.296 137.296 174.423 137.086 174.599C136.72 174.901 136.327 175.504 135.907 176.408V181H134.94ZM139.738 179.916C139.499 179.56 139.315 179.162 139.188 178.722C139.066 178.283 139.005 177.821 139.005 177.338C139.005 176.854 139.04 176.415 139.108 176.02C139.176 175.619 139.267 175.28 139.379 175.001C139.491 174.723 139.628 174.477 139.789 174.262C139.95 174.042 140.116 173.866 140.287 173.734C140.458 173.603 140.644 173.495 140.844 173.412C141.19 173.266 141.52 173.192 141.833 173.192C142.145 173.192 142.411 173.222 142.631 173.28C142.851 173.334 143.085 173.449 143.334 173.625C143.588 173.795 143.805 174.022 143.986 174.306C144.406 174.97 144.616 175.949 144.616 177.243H139.972C139.972 178.546 140.302 179.435 140.961 179.909C141.288 180.143 141.652 180.26 142.052 180.26C142.804 180.26 143.444 179.794 143.971 178.861L144.638 179.323C144.447 179.674 144.198 179.992 143.891 180.275C143.305 180.812 142.726 181.081 142.155 181.081C141.583 181.081 141.098 180.976 140.697 180.766C140.297 180.556 139.977 180.272 139.738 179.916ZM140.016 176.422H143.649C143.649 175.695 143.48 175.092 143.144 174.613C142.86 174.213 142.458 174.013 141.935 174.013C141.081 174.013 140.509 174.408 140.221 175.199C140.084 175.57 140.016 175.978 140.016 176.422ZM149.215 169.904V170.717H148.563C147.831 170.717 147.465 171.024 147.465 171.64V173.273H149.215V174.093H147.465V181H146.498V174.093H145.231V173.273H146.498V171.64C146.498 170.844 146.842 170.307 147.531 170.028C147.853 169.901 148.202 169.838 148.578 169.838C148.959 169.838 149.171 169.86 149.215 169.904Z" fill="black"/>
</svg>
